<svg id="Ebene_1" data-name="Ebene 1" xmlns="http://www.w3.org/2000/svg" xmlns:xlink="http://www.w3.org/1999/xlink" viewBox="0 0 1500 1500"><defs><style>.cls-1{fill:#1d71b8;}.cls-2{opacity:0.24;fill:url(#Unbenannter_Verlauf_9);}.cls-3{fill:#3c3c3b;}.cls-4{fill:#1d1d1b;}.cls-5{fill:#f39200;}.cls-6{fill:#f9b233;}.cls-7{fill:none;}.cls-8{fill:#e6332a;}.cls-11,.cls-9{fill:#e30613;}.cls-10{font-size:162px;fill:#fff;font-family:ArvoGr00FCn, Arvo Grün;}.cls-11{opacity:0.3;}</style><linearGradient id="Unbenannter_Verlauf_9" x1="688.27" y1="793.49" x2="1028.12" y2="1172.9" gradientUnits="userSpaceOnUse"><stop offset="0"/><stop offset="1" stop-color="#fff" stop-opacity="0"/></linearGradient></defs><path class="cls-1" d="M993.16,521.49l357.47,401.89A625.41,625.41,0,0,0,1375,750c0-345.18-279.82-625-625-625S125,404.82,125,750c0,312.55,229.43,571.51,529.05,617.68l-270.42-304Z"/><path class="cls-1" d="M1350.63,923.38,993.16,521.49,383.63,1063.65l270.42,304a629.69,629.69,0,0,0,96,7.32C1035,1375,1275.47,1184.21,1350.63,923.38Z"/><path class="cls-2" d="M1350.63,923.38,993.16,521.49,383.63,1063.65l270.42,304a629.69,629.69,0,0,0,96,7.32C1035,1375,1275.47,1184.21,1350.63,923.38Z"/><path class="cls-3" d="M750,979.6v200a100,100,0,0,1,0-200Z"/><path class="cls-4" d="M850,1079.6a100,100,0,0,1-100,100v-200A100,100,0,0,1,850,1079.6Z"/><path class="cls-5" d="M1119.34,963.83l-83.58,83.58-26.94-26.94H750V387h0c157.84,0,285.79,128,285.79,285.8V880.31Z"/><rect class="cls-5" x="750" y="947.38" width="382.76" height="131.9" rx="50"/><rect class="cls-5" x="750" y="935.95" width="78.01" height="143.33"/><path class="cls-6" d="M750,387v633.43H491.19l-26.94,26.94-83.58-83.58,83.58-83.59V672.84C464.25,515,592.18,387.06,750,387Z"/><rect class="cls-6" x="367.24" y="947.38" width="382.76" height="131.9" rx="50"/><rect class="cls-6" x="671.99" y="959.35" width="78.01" height="120.26"/><path class="cls-7" d="M470.49,613A286.3,286.3,0,0,1,651.81,404.09,150,150,0,1,0,470.49,613Z"/><path class="cls-5" d="M470.49,613A150,150,0,0,0,651.81,404.09,286.3,286.3,0,0,0,470.49,613Z"/><path class="cls-8" d="M517.24,345.4v250a125,125,0,0,1,0-250Z"/><path class="cls-9" d="M642.24,470.4a125,125,0,0,1-125,125v-250A125,125,0,0,1,642.24,470.4Z"/><text class="cls-10" transform="translate(463.46 528.29)">4</text><path class="cls-11" d="M642.24,470.4a125,125,0,0,1-125,125v-250A125,125,0,0,1,642.24,470.4Z"/></svg>