<svg id="Ebene_1" data-name="Ebene 1" xmlns="http://www.w3.org/2000/svg" viewBox="0 0 1500 1500"><defs><style>.cls-1{fill:#1d1d1b;}</style></defs><path class="cls-1" d="M750,979.6v200a100,100,0,0,1,0-200Z"/><path class="cls-1" d="M850,1079.6a100,100,0,0,1-100,100v-200A100,100,0,0,1,850,1079.6Z"/><path class="cls-1" d="M1119.34,963.83l-83.58,83.58-26.94-26.94H750V387h0c157.84,0,285.79,128,285.79,285.8V880.31Z"/><rect class="cls-1" x="750" y="947.38" width="382.76" height="131.9" rx="50"/><rect class="cls-1" x="750" y="935.95" width="78.01" height="143.33"/><path class="cls-1" d="M750,387v633.43H491.19l-26.94,26.94-83.58-83.58,83.58-83.59V672.84C464.25,515,592.18,387.06,750,387Z"/><rect class="cls-1" x="367.24" y="947.38" width="382.76" height="131.9" rx="50"/><rect class="cls-1" x="671.99" y="959.35" width="78.01" height="120.26"/></svg>